<?xml version="1.0" encoding="UTF-8"?>
<svg version="1.1" xmlns="http://www.w3.org/2000/svg" width="694" height="268">
<path d="M0 0 C229.02 0 458.04 0 694 0 C694 88.44 694 176.88 694 268 C464.98 268 235.96 268 0 268 C0 179.56 0 91.12 0 0 Z " fill="#FDFEFD" transform="translate(0,0)"/>
<path d="M0 0 C0 2.64 0 5.28 0 8 C1.010625 7.21625 2.02125 6.4325 3.0625 5.625 C10.46861107 -0.11851471 20.09411303 0.15013405 29 1 C38.88304534 3.39071507 45.40090636 7.60135954 51 16 C51.556875 15.32453125 52.11375 14.6490625 52.6875 13.953125 C58.33673466 7.34962773 62.72562603 3.75812466 71 1 C83.67538029 0.14288716 94.07673429 1.6831646 104 10 C109.67169706 16.86573855 111.41319851 24.94239775 112.5703125 33.5390625 C112.69687225 34.42355072 112.82343201 35.30803894 112.9538269 36.21932983 C113.35274367 39.02009335 113.73918443 41.82240483 114.125 44.625 C114.39107683 46.51314085 114.65799642 48.40116313 114.92578125 50.2890625 C115.30317739 52.95041224 115.67939543 55.61185932 116.04885864 58.27432251 C116.63967797 62.52790898 117.26829252 66.76770831 118 71 C118.99 71.33 119.98 71.66 121 72 C121.433125 72.474375 121.86625 72.94875 122.3125 73.4375 C124.61015902 75.56496206 127.02750796 76.14128008 130 77 C129.67 77.99 129.34 78.98 129 80 C111.84 80 94.68 80 77 80 C77.495 78.02 77.495 78.02 78 76 C78.94875 75.938125 79.8975 75.87625 80.875 75.8125 C82.421875 75.4103125 82.421875 75.4103125 84 75 C88.85405711 66.05578324 85.77138352 53.03107655 84.625 43.375 C84.49867188 42.23804688 84.37234375 41.10109375 84.2421875 39.9296875 C83.07502564 24.39416436 83.07502564 24.39416436 76 11 C71.89195918 8.41440081 67.72110514 8.15694551 63 9 C59.72778034 11.57600271 56.31909448 14.68209771 55.7253418 18.99511719 C55.69599486 21.58093883 55.6723352 24.16395567 55.6875 26.75 C55.69168945 27.71776367 55.69587891 28.68552734 55.70019531 29.68261719 C55.809695 36.9259052 56.36009804 44.06228486 57.25 51.25 C57.35916748 52.17651367 57.46833496 53.10302734 57.58081055 54.05761719 C58.49654168 60.71813504 59.66197479 69.09397407 64.96191406 73.70800781 C67.22349789 75.14168074 69.48551538 76.09199167 72 77 C72 77.99 72 78.98 72 80 C54.84 80 37.68 80 20 80 C20.495 78.02 20.495 78.02 21 76 C21.78375 75.690625 22.5675 75.38125 23.375 75.0625 C26.08744777 74.17876779 26.08744777 74.17876779 27.8125 72.0625 C31.22726667 63.25599649 28.49041275 51.90714501 27.40087891 42.7109375 C27.12479644 40.37327641 26.86055656 38.03448885 26.59765625 35.6953125 C25.67510167 21.19820718 25.67510167 21.19820718 19 9 C15.25909693 7.12954847 11.06310844 7.32281526 7 8 C3.897868 10.08206157 2.31416714 12.76491454 1.38897705 16.40211487 C1.01010803 18.9324909 0.86006784 21.32168477 0.83886719 23.87866211 C0.82925964 24.8199144 0.8196521 25.76116669 0.80975342 26.73094177 C0.80550354 27.73625443 0.80125366 28.74156708 0.796875 29.77734375 C0.78832489 31.34350182 0.78832489 31.34350182 0.77960205 32.94129944 C0.77017178 35.14599601 0.76362592 37.35070656 0.75976562 39.55541992 C0.75004487 42.9219621 0.71899617 46.28789744 0.6875 49.65429688 C0.68097084 51.79947555 0.67572003 53.94465858 0.671875 56.08984375 C0.6595282 57.09313217 0.6471814 58.09642059 0.63446045 59.13011169 C0.65147754 64.48515702 0.87912343 68.42609668 4 73 C6.91765 74.9451 8.62537285 75.45276317 12 76 C12 77.32 12 78.64 12 80 C-5.49 80 -22.98 80 -41 80 C-41 79.01 -41 78.02 -41 77 C-40.37351562 76.78085938 -39.74703125 76.56171875 -39.1015625 76.3359375 C-38.28429687 76.01882812 -37.46703125 75.70171875 -36.625 75.375 C-35.81289063 75.07335937 -35.00078125 74.77171875 -34.1640625 74.4609375 C-31.07498722 72.37553289 -30.91296252 70.60516023 -30 67 C-29.69222047 63.81200805 -29.64866458 60.63890548 -29.62890625 57.4375 C-29.61987778 56.52798584 -29.6108493 55.61847168 -29.60154724 54.68139648 C-29.58708923 52.76516999 -29.57816911 50.84889464 -29.57446289 48.93261719 C-29.56253639 46.00892077 -29.51328307 43.08731611 -29.46289062 40.1640625 C-29.45342858 38.29688524 -29.4461925 36.4296951 -29.44140625 34.5625 C-29.42187393 33.69359131 -29.40234161 32.82468262 -29.38221741 31.92944336 C-29.41363207 27.68557434 -29.65491096 24.86822467 -32.35913086 21.48828125 C-34.90082146 19.09344806 -36.67258496 17.95069001 -40 17 C-39.67 16.01 -39.34 15.02 -39 14 C-38.09378906 13.90203125 -37.18757813 13.8040625 -36.25390625 13.703125 C-28.79814387 12.78792031 -22.60060859 11.5835178 -16 8 C-15.04738281 7.49726562 -14.09476562 6.99453125 -13.11328125 6.4765625 C-1.02896341 0 -1.02896341 0 0 0 Z " fill="#414E21" transform="translate(307,105)"/>
<path d="M0 0 C1.36125 1.051875 1.36125 1.051875 2.75 2.125 C3.31203125 2.53234375 3.8740625 2.9396875 4.453125 3.359375 C11.21232787 8.59041026 16.05746479 16.02961047 17.5 24.51953125 C18.74666206 37.51208744 18.00987735 48.8115634 9.5078125 59.21484375 C2.07388373 67.29304634 -6.00376966 73.46917203 -17.24609375 74.36328125 C-28.80412414 74.61254638 -39.21190563 72.90611904 -48.1875 65.16796875 C-57.54419917 55.89987468 -62.57042708 47.41603868 -62.75 34.1875 C-62.65780259 24.45866941 -60.53388412 15.80530281 -54.25 8.125 C-38.80984826 -6.91755126 -19.21334272 -11.0846208 0 0 Z " fill="#414E21" transform="translate(166.25,111.875)"/>
<path d="M0 0 C0.97646484 0.51820312 0.97646484 0.51820312 1.97265625 1.046875 C9.25428795 5.41227582 11.73923258 12.20937696 14 20 C14.91477619 24.99722289 15.50162752 30.01464764 16.0625 35.0625 C17.41519613 51.66606805 17.41519613 51.66606805 25 66 C28.6365731 66.97350778 28.6365731 66.97350778 32 67 C32 67.99 32 68.98 32 70 C23.73912444 76.25823906 13.35077932 75.81293665 3.4921875 74.72265625 C-1.35718014 73.75462659 -3.76443815 71.60534035 -7 68 C-7.99 67.67 -8.98 67.34 -10 67 C-12.02790984 68.29048808 -14.02369593 69.63178949 -16 71 C-25.87485661 75.76109158 -38.40728168 76.94806916 -49.12109375 74.19921875 C-56.21589953 71.05677053 -59.62206561 65.75586877 -63 59 C-63.77453544 52.16885133 -63.07544102 46.63517771 -59 41 C-53.50691695 35.07487671 -47.27364082 32.75577321 -39.375 32.0625 C-27.28378052 30.99655354 -27.28378052 30.99655354 -17.203125 25.125 C-14.71113894 20.72357008 -15.4356734 16.07223154 -16.7265625 11.33203125 C-18.89148751 5.37408723 -21.19969277 1.90015361 -27 -1 C-28.70702735 -1.06996014 -30.41668003 -1.08440154 -32.125 -1.0625 C-33.03507813 -1.05347656 -33.94515625 -1.04445313 -34.8828125 -1.03515625 C-35.93082031 -1.01775391 -35.93082031 -1.01775391 -37 -1 C-37.84474708 1.70319065 -38.32410396 3.23988889 -38 6 C-36.51971477 8.07457702 -36.51971477 8.07457702 -34.5625 10 C-31.79275785 12.85819699 -31.0650176 13.61639614 -30.375 17.6875 C-31.04114223 21.2180538 -31.70926724 23.23532253 -34 26 C-38.22023567 28.60661615 -43.18853464 28.78640822 -48 28 C-52.33114009 25.67974638 -52.33114009 25.67974638 -54 23 C-54.90272706 19.63890301 -55.03811129 16.46812782 -55 13 C-55 11.783125 -55 10.56625 -55 9.3125 C-53.40938093 4.04357434 -49.88501338 0.67477472 -45.15625 -2.0703125 C-31.67998109 -8.15827609 -12.79396048 -6.9458631 0 0 Z " fill="#414E20" transform="translate(557,111)"/>
<path d="M0 0 C4.25392564 3.47259236 5.62903313 5.76468234 6.23828125 11.078125 C6.43164732 16.73662696 5.54479008 21.43772388 2 26 C-2.11258443 28.65550525 -6.25738542 28.558951 -11 28 C-14.63467079 26.37599816 -15.77408696 25.33886956 -18 22 C-18.33957563 17.92509248 -18.31332486 16.46998729 -16 13 C-14.33927151 12.31867549 -12.672233 11.65257873 -11 11 C-9.03959519 9.87359395 -9.03959519 9.87359395 -8 8 C-8.23283149 4.85078091 -8.23283149 4.85078091 -9 2 C-13.06732076 0.64422641 -16.75174668 0.35586051 -21 1 C-23.83221019 3.07234892 -24.68698807 4.58452128 -25.44140625 7.99609375 C-26.02632974 15.37608592 -23.13830786 21.76672524 -20.41015625 28.4609375 C-18.19648318 34.01658239 -17.90113977 38.06838603 -18 44 C-13.05 44 -8.1 44 -3 44 C-3 44.99 -3 45.98 -3 47 C-7.95 47 -12.9 47 -18 47 C-17.67 67.13 -17.34 87.26 -17 108 C-16.01 108.495 -16.01 108.495 -15 109 C-14.67 109.99 -14.34 110.98 -14 112 C-12.13977928 113.23277127 -12.13977928 113.23277127 -9.9375 114.1875 C-8.83728516 114.70376953 -8.83728516 114.70376953 -7.71484375 115.23046875 C-7.14894531 115.48441406 -6.58304688 115.73835938 -6 116 C-6 116.99 -6 117.98 -6 119 C-23.16 119 -40.32 119 -58 119 C-58 117.68 -58 116.36 -58 115 C-54.04 114.01 -54.04 114.01 -50 113 C-47.51130974 106.22814281 -47.65180398 99.56304321 -47.5859375 92.41015625 C-47.56657135 91.11049423 -47.5472052 89.81083221 -47.5272522 88.4717865 C-47.47618655 85.03765821 -47.4364252 81.60349099 -47.39910889 78.16918945 C-47.35890769 74.65631685 -47.30788937 71.14360262 -47.2578125 67.63085938 C-47.16135664 60.75402232 -47.07685603 53.8770833 -47 47 C-49.97 47 -52.94 47 -56 47 C-56 46.01 -56 45.02 -56 44 C-52.7 44 -49.4 44 -46 44 C-46.04640625 42.77925781 -46.0928125 41.55851562 -46.140625 40.30078125 C-46.51331344 26.33492218 -45.25793732 14.17253693 -36 3 C-26.68080018 -6.57107009 -11.04163869 -6.24883948 0 0 Z " fill="#424F22" transform="translate(109,66)"/>
<path d="M0 0 C0.00146656 0.55622606 0.00293312 1.11245213 0.00444412 1.68553352 C0.04152755 15.23205136 0.10081431 28.77831619 0.18390274 42.32463264 C0.2234147 48.87561166 0.25558514 55.4264555 0.27099609 61.97753906 C0.28613786 68.29950424 0.32054012 74.62109789 0.36830902 80.9428978 C0.38314828 83.35498704 0.39104247 85.76712932 0.39188385 88.17926407 C0.39424749 91.55757528 0.42128056 94.93485473 0.45410156 98.31298828 C0.4490712 99.31064713 0.44404083 100.30830597 0.43885803 101.3361969 C0.52693522 107.1945252 1.1087976 110.53259368 5 115 C7.51364756 116.82619087 7.51364756 116.82619087 10 118 C10.99 118.495 10.99 118.495 12 119 C12 119.99 12 120.98 12 122 C-5.16 122 -22.32 122 -40 122 C-39.67 120.68 -39.34 119.36 -39 118 C-36.67328135 116.98470459 -34.3396553 115.98511802 -32 115 C-28.23286116 110.20545965 -28.87058342 102.47437337 -28.83886719 96.6628418 C-28.83390228 95.96587189 -28.82893738 95.26890198 -28.82382202 94.55081177 C-28.80933161 92.26693704 -28.80242092 89.98313171 -28.796875 87.69921875 C-28.79404762 86.91274271 -28.79122025 86.12626667 -28.78830719 85.31595802 C-28.77336874 81.15472712 -28.76410525 76.99353042 -28.75976562 72.83227539 C-28.75428543 68.55893814 -28.73025165 64.2859202 -28.70179367 60.01268291 C-28.68307151 56.70360935 -28.67795665 53.39461131 -28.67642975 50.08548927 C-28.67342484 48.51119044 -28.66547041 46.93689224 -28.65224457 45.3626461 C-28.11768267 30.81620946 -28.11768267 30.81620946 -34.5 18.4375 C-37.00092808 16.8892732 -37.00092808 16.8892732 -40 16 C-40 15.01 -40 14.02 -40 13 C-39.21238281 12.91363281 -38.42476562 12.82726562 -37.61328125 12.73828125 C-25.92711712 11.23083523 -15.92880463 7.7027579 -6.12109375 1.13671875 C-4 0 -4 0 0 0 Z " fill="#3E4C1E" transform="translate(633,63)"/>
<path d="M0 0 C4.37539325 4.37539325 5.97863563 6.91854696 6.3125 13.125 C6.15067016 18.83528146 4.56752395 22.54637557 0.8125 26.8125 C-1.66956 29.152728 -3.16442335 29.76007789 -6.55078125 29.93359375 C-10.97607293 29.73035813 -13.60340649 29.20968359 -17.3125 26.6875 C-19.72773613 22.98413794 -20.03982095 21.15158848 -19.1875 16.8125 C-17.20793058 15.12161778 -15.20804804 13.45419528 -13.1875 11.8125 C-12.43612832 8.6832236 -12.43612832 8.6832236 -13.1875 5.8125 C-16.2905725 3.743785 -18.38439231 3.09817257 -22.1171875 3.16015625 C-25.77621987 4.31309664 -27.16305854 7.29217801 -29.05859375 10.453125 C-30.83267409 14.16089152 -31.31405439 17.39411043 -31.34863281 21.48583984 C-31.35824036 22.40714691 -31.3678479 23.32845398 -31.37774658 24.27767944 C-31.3841214 25.76057968 -31.3841214 25.76057968 -31.390625 27.2734375 C-31.39917511 28.80842392 -31.39917511 28.80842392 -31.40789795 30.37442017 C-31.41733723 32.53801442 -31.42387767 34.70162297 -31.42773438 36.86523438 C-31.43744334 40.16822454 -31.46847867 43.47059321 -31.5 46.7734375 C-31.50653013 48.87760048 -31.51178056 50.9817679 -31.515625 53.0859375 C-31.5279718 54.0704892 -31.5403186 55.05504089 -31.55303955 56.06942749 C-31.53297291 62.27183898 -30.75347693 66.54671118 -26.8125 71.5625 C-24.75081156 73.14841418 -22.63042928 73.9541735 -20.1875 74.8125 C-20.6825 76.2975 -20.6825 76.2975 -21.1875 77.8125 C-38.0175 77.8125 -54.8475 77.8125 -72.1875 77.8125 C-71.8575 76.4925 -71.5275 75.1725 -71.1875 73.8125 C-67.7225 72.8225 -67.7225 72.8225 -64.1875 71.8125 C-61.58089732 63.14354898 -60.74762107 55.21611854 -60.875 46.1875 C-60.87177734 45.03765625 -60.86855469 43.8878125 -60.86523438 42.703125 C-60.716543 30.32336799 -60.716543 30.32336799 -65.5625 19.3125 C-67.77459455 17.20574328 -69.35412484 15.86189821 -72.1875 14.8125 C-72.1875 14.1525 -72.1875 13.4925 -72.1875 12.8125 C-70.516875 12.51859375 -70.516875 12.51859375 -68.8125 12.21875 C-57.72181819 10.10379414 -44.46440193 7.08940193 -36.1875 -1.1875 C-34.8675 -1.1875 -33.5475 -1.1875 -32.1875 -1.1875 C-32.1875 0.7925 -32.1875 2.7725 -32.1875 4.8125 C-31.176875 4.02875 -30.16625 3.245 -29.125 2.4375 C-21.52071918 -2.88851414 -8.18701552 -5.55111074 0 0 Z " fill="#414E21" transform="translate(256.1875,107.1875)"/>
<path d="M0 0 C0.00546844 1.21696312 0.00546844 1.21696312 0.01104736 2.45851135 C0.04899538 10.1237084 0.10592459 17.78842307 0.18390274 25.45330906 C0.2233253 29.3934496 0.25553907 33.33336842 0.27099609 37.27368164 C0.28619756 41.08003071 0.32070362 44.88577 0.36830902 48.69184685 C0.38308713 50.14016339 0.39103896 51.58856701 0.39188385 53.03695869 C0.28579907 63.70964896 0.28579907 63.70964896 5 73 C6.813697 74.40183436 6.813697 74.40183436 8.75 74.9375 C9.8225 75.288125 10.895 75.63875 12 76 C11.505 77.485 11.505 77.485 11 79 C-5.83 79 -22.66 79 -40 79 C-40 77.68 -40 76.36 -40 75 C-39.071875 74.7525 -38.14375 74.505 -37.1875 74.25 C-33.78637127 72.91622403 -32.78514071 72.10050754 -31 69 C-29.73237702 65.19713107 -29.8180987 61.60462862 -29.796875 57.640625 C-29.79117493 56.81802185 -29.78547485 55.9954187 -29.77960205 55.14788818 C-29.77015777 53.40622236 -29.76362034 51.66453872 -29.75976562 49.92285156 C-29.75008683 47.27376591 -29.71906979 44.62546522 -29.6875 41.9765625 C-29.68096679 40.28125459 -29.67571757 38.58594115 -29.671875 36.890625 C-29.6595282 36.10496155 -29.6471814 35.3192981 -29.63446045 34.50982666 C-29.65541494 29.26909347 -30.53482429 25.64991749 -33 21 C-35.26487929 18.90084359 -37.25041436 17.37479282 -40 16 C-40 15.34 -40 14.68 -40 14 C-39.2471875 13.93683594 -38.494375 13.87367187 -37.71875 13.80859375 C-30.80986265 13.01205941 -24.97360189 11.47209217 -18.625 8.6875 C-17.64563477 8.26198853 -17.64563477 8.26198853 -16.64648438 7.82788086 C-13.23219536 6.26531395 -10.27322104 4.53413633 -7.2734375 2.26953125 C-4 0 -4 0 0 0 Z " fill="#424F22" transform="translate(483,106)"/>
<path d="M0 0 C3 2 3 2 3.70849609 4.33691406 C4.88177199 12.14746772 5.41072954 19.85770468 5.625 27.75 C5.68300781 29.52890625 5.68300781 29.52890625 5.7421875 31.34375 C5.83526085 34.22902375 5.92108941 37.11431021 6 40 C6.99 40.33 7.98 40.66 9 41 C-3.02622657 48.90294889 -14.60768614 51.52102567 -29 50 C-36.28978607 48.12965439 -40.15938211 44.36308114 -43.94140625 37.98828125 C-46.70943848 32.78928345 -47.04388114 27.45375532 -45.31640625 21.73828125 C-42.11514896 14.76458798 -36.99473223 11.03105063 -30 8 C-26.3359375 7.41015625 -26.3359375 7.41015625 -22.375 7.0625 C-10.20954609 5.89866777 -10.20954609 5.89866777 0 0 Z " fill="#435023" transform="translate(540,136)"/>
<path d="M0 0 C0.70302246 0.00161133 1.40604492 0.00322266 2.13037109 0.00488281 C3.20810791 0.0072998 3.20810791 0.0072998 4.30761719 0.00976562 C13.15247668 0.21127906 20.66466008 2.94899248 27.69287109 8.37988281 C28.25490234 8.78722656 28.81693359 9.19457031 29.39599609 9.61425781 C36.15519896 14.84529307 41.00033588 22.28449328 42.44287109 30.77441406 C43.7011187 43.88771334 42.90460763 55.11504875 34.32568359 65.59082031 C27.14183666 73.46211671 27.14183666 73.46211671 21.75537109 74.25488281 C20.74474609 74.29613281 19.73412109 74.33738281 18.69287109 74.37988281 C18.69287109 75.03988281 18.69287109 75.69988281 18.69287109 76.37988281 C17.70287109 76.37988281 16.71287109 76.37988281 15.69287109 76.37988281 C16.02287109 75.24550781 16.35287109 74.11113281 16.69287109 72.94238281 C21.24466943 52.08270267 15.11141202 29.23065197 4.18505859 11.29785156 C2.57119304 9.2234851 0.78458788 7.94642607 -1.30712891 6.37988281 C-1.30712891 5.71988281 -1.30712891 5.05988281 -1.30712891 4.37988281 C-3.28712891 3.71988281 -5.26712891 3.05988281 -7.30712891 2.37988281 C-4.85080917 -0.07643692 -3.36424612 0.0739756 0 0 Z " fill="#3F4D1F" transform="translate(141.30712890625,105.6201171875)"/>
<path d="M0 0 C4.84606515 0.73148153 7.35449883 2.7668413 10.3125 6.5 C19.53177817 21.42812201 24.35989787 37.81007885 24.625 55.3125 C24.64272461 56.01785889 24.66044922 56.72321777 24.67871094 57.44995117 C24.67180717 62.32688516 23.95219549 67.86030451 20.3125 71.5 C17.08800212 72.06570138 15.40279154 72.3073253 12.3125 71.5 C-0.50929543 61.75449614 -4.699684 41.4602702 -7.6875 26.5 C-8.75631344 18.12155246 -9.16625 9.94619765 -4.6875 2.5 C-2.6875 0.5 -2.6875 0.5 0 0 Z " fill="#FAFBF8" transform="translate(135.6875,109.5)"/>
<path d="M0 0 C3.37326932 2.3395255 5.38082759 4.57421148 7.125 8.3125 C7.41796875 11.42578125 7.41796875 11.42578125 7.3125 14.625 C7.27189453 16.22794922 7.27189453 16.22794922 7.23046875 17.86328125 C7.19566406 18.67152344 7.16085937 19.47976562 7.125 20.3125 C6.465 20.3125 5.805 20.3125 5.125 20.3125 C4.898125 21.055 4.67125 21.7975 4.4375 22.5625 C2.60407322 26.40396563 -0.10476824 28.42738412 -3.875 30.3125 C-8.94906821 30.99945077 -13.8371459 31.50018684 -18.375 28.85546875 C-22.08399353 25.61691741 -25.53754024 22.49553613 -26.31640625 17.45703125 C-26.5316274 11.53497836 -26.63552375 7.29396721 -22.6875 2.625 C-15.97727104 -3.73699353 -7.96538181 -5.04647154 0 0 Z " fill="#424F22" transform="translate(475.875,64.6875)"/>
<path d="M0 0 C2.56191305 2.56191305 2.36748448 3.81458794 2.6328125 7.3828125 C2.75849609 9.01089844 2.75849609 9.01089844 2.88671875 10.671875 C2.96535156 11.81140625 3.04398438 12.9509375 3.125 14.125 C3.21136719 15.24132812 3.29773438 16.35765625 3.38671875 17.5078125 C4.62440484 34.16746021 4.62440484 34.16746021 2.125 37.5 C-2.32518607 39.63608931 -6.15055735 39.76161119 -11 39 C-14.66179604 37.26896914 -16.46189044 35.71747942 -18.875 32.5 C-20.74520388 26.68158794 -21.70355962 20.37235272 -18.8515625 14.7265625 C-14.05888741 8.81170007 -7.35992604 5.02260306 -1 1 C-0.67 0.67 -0.34 0.34 0 0 Z " fill="#FBFCFA" transform="translate(542,139)"/>
<path d="M0 0 C2.51625 -0.061875 5.0325 -0.12375 7.625 -0.1875 C8.79603271 -0.22846802 8.79603271 -0.22846802 9.99072266 -0.27026367 C14.73414065 -0.32625985 17.86872694 0.43811445 22 3 C24 5 24 5 24.375 7.875 C23.92491816 11.62568199 22.87398748 12.66488517 20 15 C20.825 15.350625 21.65 15.70125 22.5 16.0625 C25 18 25 18 25.5625 21.4375 C24.92895477 25.44995312 24.17006893 26.57582965 21 29 C18.65147472 30.17426264 17.26225935 30.11508173 14.6484375 30.09765625 C13.88192871 30.09515869 13.11541992 30.09266113 12.32568359 30.09008789 C11.35195801 30.08098389 10.37823242 30.07187988 9.375 30.0625 C6.28125 30.041875 3.1875 30.02125 0 30 C0 20.1 0 10.2 0 0 Z " fill="#77805E" transform="translate(574,198)"/>
<path d="M0 0 C5.50492865 2.59055466 8.3826179 6.66095762 11 12 C11.88228761 14.81996988 12.21536725 17.4877319 12.3125 20.4375 C12.34988281 21.17871094 12.38726563 21.91992188 12.42578125 22.68359375 C11.79774063 26.10036519 10.48794613 27.58696825 8 30 C5.3523115 31.16051282 2.99923998 32.033208 0.25 32.8125 C-0.76707031 33.13637695 -0.76707031 33.13637695 -1.8046875 33.46679688 C-6.66809661 34.9230458 -10.931023 35.19889484 -16 35 C-15.01 34.505 -15.01 34.505 -14 34 C-14 33.01 -14 32.02 -14 31 C-15.32 30.67 -16.64 30.34 -18 30 C-17.38511719 29.89042969 -16.77023437 29.78085938 -16.13671875 29.66796875 C-15.32847656 29.50941406 -14.52023437 29.35085937 -13.6875 29.1875 C-12.88699219 29.03667969 -12.08648438 28.88585937 -11.26171875 28.73046875 C-8.72936328 27.91259229 -7.66990561 27.03985393 -6 25 C-4.36976186 21.73952371 -4.5326465 19.62198965 -5 16 C-6.70978152 13.79275148 -8.53237154 11.90330784 -10.56640625 9.9921875 C-12 8 -12 8 -11.78125 5.37109375 C-9.81962286 -0.58244462 -5.83423918 -0.96497872 0 0 Z " fill="#F9FBF7" transform="translate(530,109)"/>
<path d="M0 0 C3.63 0 7.26 0 11 0 C12.51041757 4.07955572 14.0065145 8.16421836 15.5 12.25 C15.92925781 13.40886719 16.35851562 14.56773437 16.80078125 15.76171875 C17.40986328 17.43427734 17.40986328 17.43427734 18.03125 19.140625 C18.40830078 20.16704102 18.78535156 21.19345703 19.17382812 22.25097656 C20 25 20 25 20 29 C17.36 29 14.72 29 12 29 C11.505 26.525 11.505 26.525 11 24 C7.37 23.67 3.74 23.34 0 23 C-0.33 24.65 -0.66 26.3 -1 28 C-3.31 28 -5.62 28 -8 28 C-5.78952972 18.51115195 -2.97604874 9.26927435 0 0 Z " fill="#444E26" transform="translate(547,199)"/>
<path d="M0 0 C3.02286884 1.38548155 4.66871425 2.66871425 7 5 C7.125 7.625 7.125 7.625 7 10 C4.69 10.33 2.38 10.66 0 11 C-0.20625 10.360625 -0.4125 9.72125 -0.625 9.0625 C-1.89538209 6.65074923 -1.89538209 6.65074923 -5.125 6.25 C-6.07375 6.1675 -7.0225 6.085 -8 6 C-8 7.32 -8 8.64 -8 10 C-7.34773437 10.15855469 -6.69546875 10.31710938 -6.0234375 10.48046875 C-0.22103918 12.02948659 4.01849397 13.38983513 8 18 C8.83724202 22.26232302 8.47037393 24.18120093 6.3125 27.9375 C1.22692887 31.10398769 -4.16457243 31.04719925 -10 30 C-13.5357678 27.73149781 -14.7818312 26.87267519 -15.8125 22.75 C-15.874375 21.8425 -15.93625 20.935 -16 20 C-12.535 19.505 -12.535 19.505 -9 19 C-8.34 20.32 -7.68 21.64 -7 23 C-4.69 23 -2.38 23 0 23 C0 22.01 0 21.02 0 20 C-1.24716797 19.61908203 -1.24716797 19.61908203 -2.51953125 19.23046875 C-3.60621094 18.88628906 -4.69289063 18.54210937 -5.8125 18.1875 C-7.43091797 17.68283203 -7.43091797 17.68283203 -9.08203125 17.16796875 C-11.87118732 16.05155956 -13.29884251 15.43851926 -15 13 C-15.67876033 9.92860949 -15.56836931 7.08702548 -15 4 C-11.26238782 -1.10806998 -5.81548641 -0.8130203 0 0 Z " fill="#48532A" transform="translate(622,198)"/>
<path d="M0 0 C2.31 0 4.62 0 7 0 C7 7.59 7 15.18 7 23 C10.63 23 14.26 23 18 23 C18 25.31 18 27.62 18 30 C11.73 30 5.46 30 -1 30 C-1.02291394 25.88822073 -1.04283951 21.77660342 -1.05493164 17.66479492 C-1.0599708 16.26504772 -1.06680216 14.8653058 -1.07543945 13.46557617 C-1.0875232 11.45754223 -1.09269807 9.44947043 -1.09765625 7.44140625 C-1.10289307 6.23170166 -1.10812988 5.02199707 -1.11352539 3.77563477 C-1 1 -1 1 0 0 Z " fill="#59623D" transform="translate(514,198)"/>
<path d="M0 0 C2.41048763 0.44846282 4.11791426 1.08475635 6.18359375 2.40625 C7.24609375 5.21875 7.24609375 5.21875 7.18359375 8.40625 C4.4740533 11.88994486 2.46728805 13.55318026 -1.81640625 14.40625 C-1.93757813 14.97214844 -2.05875 15.53804687 -2.18359375 16.12109375 C-2.35117188 16.85457031 -2.51875 17.58804688 -2.69140625 18.34375 C-2.85382813 19.07464844 -3.01625 19.80554688 -3.18359375 20.55859375 C-3.81640625 22.40625 -3.81640625 22.40625 -5.81640625 23.40625 C-6.47640625 24.39625 -7.13640625 25.38625 -7.81640625 26.40625 C-10.9472417 19.83708633 -13.22791018 13.74102937 -11.81640625 6.40625 C-9.4768755 0.75988251 -5.68307173 -0.23638427 0 0 Z " fill="#F1F5EE" transform="translate(94.81640625,65.59375)"/>
<path d="M0 0 C2.97 0 5.94 0 9 0 C8.67 0.66 8.34 1.32 8 2 C7.77532169 3.53668865 7.59203195 5.07968054 7.4375 6.625 C7.2209375 8.790625 7.2209375 8.790625 7 11 C12.445 10.505 12.445 10.505 18 10 C18 10.66 18 11.32 18 12 C17.01 12 16.02 12 15 12 C15.33 12.99 15.66 13.98 16 15 C13.03 15 10.06 15 7 15 C7 17.64 7 20.28 7 23 C9.64 23 12.28 23 15 23 C14.34 23.66 13.68 24.32 13 25 C13.66 25.66 14.32 26.32 15 27 C10.05 27 5.1 27 0 27 C0 18.09 0 9.18 0 0 Z " fill="#404B20" transform="translate(575,200)"/>
<path d="M0 0 C2.89684158 -0.10829314 5.78961019 -0.18743954 8.6875 -0.25 C9.50412109 -0.28351563 10.32074219 -0.31703125 11.16210938 -0.3515625 C15.26792928 -0.41805351 17.45023054 -0.32873539 21.05078125 1.82421875 C23 4 23 4 23.5 7.0625 C23 10 23 10 21.625 11.875 C20 13 20 13 18 13 C18 12.34 18 11.68 18 11 C17.484375 11.165 16.96875 11.33 16.4375 11.5 C13.26636124 12.15049 10.22781666 12.0620734 7 12 C6.97310784 10.52093108 6.95365379 9.04172517 6.9375 7.5625 C6.92589844 6.73878906 6.91429687 5.91507813 6.90234375 5.06640625 C7 3 7 3 8 2 C5.36 1.67 2.72 1.34 0 1 C0 0.67 0 0.34 0 0 Z " fill="#444E24" transform="translate(575,199)"/>
<path d="M0 0 C2.8326134 1.4163067 3.01707833 3.14497293 4.125 6.0625 C4.47820313 6.98160156 4.83140625 7.90070313 5.1953125 8.84765625 C5.46085938 9.55792969 5.72640625 10.26820313 6 11 C6.66 11 7.32 11 8 11 C8.33 10.01 8.66 9.02 9 8 C9.66 8 10.32 8 11 8 C11.67467562 9.74692795 12.33944156 11.49768525 13 13.25 C13.556875 14.71179688 13.556875 14.71179688 14.125 16.203125 C15 19 15 19 15 23 C12.36 23 9.72 23 7 23 C6.67 21.35 6.34 19.7 6 18 C4.02 17.67 2.04 17.34 0 17 C0.66 16.67 1.32 16.34 2 16 C2 15.34 2 14.68 2 14 C0.35 13.67 -1.3 13.34 -3 13 C-2.343621 8.51474352 -1.29925791 4.33085971 0 0 Z " fill="#515B35" transform="translate(552,205)"/>
<path d="M0 0 C0 34.32 0 68.64 0 104 C-0.33 104 -0.66 104 -1 104 C-1.33 70.67 -1.66 37.34 -2 3 C-2.33 3.33 -2.66 3.66 -3 4 C-4.99958364 4.04080783 -7.00045254 4.04254356 -9 4 C-4.5 0 -4.5 0 0 0 Z " fill="#576142" transform="translate(633,63)"/>
<path d="M0 0 C4.17720641 0.57546604 6.50745022 2.42932522 9.41015625 5.33203125 C9.53515625 7.95703125 9.53515625 7.95703125 9.41015625 10.33203125 C7.10015625 10.66203125 4.79015625 10.99203125 2.41015625 11.33203125 C2.20390625 10.69265625 1.99765625 10.05328125 1.78515625 9.39453125 C0.51477416 6.98278048 0.51477416 6.98278048 -2.71484375 6.58203125 C-3.66359375 6.49953125 -4.61234375 6.41703125 -5.58984375 6.33203125 C-5.91984375 5.01203125 -6.24984375 3.69203125 -6.58984375 2.33203125 C-8.23984375 2.99203125 -9.88984375 3.65203125 -11.58984375 4.33203125 C-8.4241246 -0.27265114 -5.1835303 -0.20611976 0 0 Z " fill="#515B34" transform="translate(619.58984375,197.66796875)"/>
<path d="M0 0 C0.33 0 0.66 0 1 0 C1 2.64 1 5.28 1 8 C2.65 8.33 4.3 8.66 6 9 C6 9.66 6 10.32 6 11 C3.69 11.33 1.38 11.66 -1 12 C-1.33 13.65 -1.66 15.3 -2 17 C-4.31 17 -6.62 17 -9 17 C-8.60265845 15.05844468 -8.18136959 13.12177962 -7.75 11.1875 C-7.51796875 10.10855469 -7.2859375 9.02960938 -7.046875 7.91796875 C-5.88275763 4.67320877 -4.98042434 3.64616461 -2 2 C-1.34 2 -0.68 2 0 2 C0 1.34 0 0.68 0 0 Z " fill="#414C22" transform="translate(548,210)"/>
<path d="M0 0 C0.2475 0.969375 0.495 1.93875 0.75 2.9375 C1.36875 4.4534375 1.36875 4.4534375 2 6 C4.03243548 6.96877057 4.03243548 6.96877057 6 7 C5.34 7 4.68 7 4 7 C4 7.66 4 8.32 4 9 C6.64 9.33 9.28 9.66 12 10 C12 10.33 12 10.66 12 11 C9.93867858 11.10864945 7.87568679 11.18588321 5.8125 11.25 C4.08966797 11.31960937 4.08966797 11.31960937 2.33203125 11.390625 C-1.66018315 10.92260455 -3.22460168 9.85702768 -6 7 C-6.8125 3.75 -6.8125 3.75 -7 1 C-4.50935112 0.31292445 -2.62113708 0 0 0 Z " fill="#515C34" transform="translate(613,217)"/>
<path d="M0 0 C-0.99 0.33 -1.98 0.66 -3 1 C-3 1.66 -3 2.32 -3 3 C-3.66 3 -4.32 3 -5 3 C-4.67 3.99 -4.34 4.98 -4 6 C-4.66386719 5.94199219 -5.32773438 5.88398437 -6.01171875 5.82421875 C-11.11748917 5.41689136 -11.11748917 5.41689136 -15.77734375 7.11328125 C-17.29461729 8.61568223 -17.29461729 8.61568223 -19 11 C-19.99 9.68 -20.98 8.36 -22 7 C-14.85418818 1.45835002 -9.02079341 -0.31651907 0 0 Z " fill="#4F5930" transform="translate(246,105)"/>
<path d="M0 0 C-0.99 1.485 -0.99 1.485 -2 3 C-1.01 3.33 -0.02 3.66 1 4 C1 4.33 1 4.66 1 5 C-0.8253125 5.0928125 -0.8253125 5.0928125 -2.6875 5.1875 C-7.20179824 5.73782964 -9.07480578 7.48976694 -12 11 C-13 12 -14 13 -15 14 C-15 13.34 -15 12.68 -15 12 C-15.66 12 -16.32 12 -17 12 C-14.54209543 6.27749398 -9.56355442 2.33750665 -4.125 -0.5 C-2 -1 -2 -1 0 0 Z " fill="#545C39" transform="translate(377,108)"/>
<path d="M0 0 C5.445 1.485 5.445 1.485 11 3 C11.33 4.32 11.66 5.64 12 7 C11 8 11 8 7.5625 8.1875 C4 8 4 8 2 6 C2 5.01 2 4.02 2 3 C-0.31 3.33 -2.62 3.66 -5 4 C-5 3.34 -5 2.68 -5 2 C-4.01 1.67 -3.02 1.34 -2 1 C-1.34 1.33 -0.68 1.66 0 2 C0 1.34 0 0.68 0 0 Z " fill="#F0F4EA" transform="translate(611,214)"/>
<path d="M0 0 C2.97 0.99 5.94 1.98 9 3 C10.01911045 6.89114901 10.16782969 8.60596507 8.5625 12.375 C8.046875 13.24125 7.53125 14.1075 7 15 C4.44772349 11.92849245 3.11223296 9.01474376 1.8125 5.25 C1.46832031 4.26515625 1.12414062 3.2803125 0.76953125 2.265625 C0.51558594 1.51796875 0.26164063 0.7703125 0 0 Z " fill="#475228" transform="translate(552,204)"/>
<path d="M0 0 C-1.58074564 0.81752303 -3.16471223 1.62881997 -4.75 2.4375 C-5.63171875 2.88996094 -6.5134375 3.34242188 -7.421875 3.80859375 C-12.16661405 6.00123831 -16.00891974 6.11102852 -21.25 6.0625 C-22.51328125 6.05347656 -23.7765625 6.04445312 -25.078125 6.03515625 C-26.04234375 6.02355469 -27.0065625 6.01195312 -28 6 C-28 5.67 -28 5.34 -28 5 C-22.555 4.01 -22.555 4.01 -17 3 C-17 2.34 -17 1.68 -17 1 C-14.36 0.67 -11.72 0.34 -9 0 C-9 0.66 -9 1.32 -9 2 C-8.01 2 -7.02 2 -6 2 C-6 1.34 -6 0.68 -6 0 C-3 -1 -3 -1 0 0 Z " fill="#636B4A" transform="translate(166,180)"/>
<path d="M0 0 C1.63001953 0.01353516 1.63001953 0.01353516 3.29296875 0.02734375 C4.12441406 0.03894531 4.95585938 0.05054688 5.8125 0.0625 C5.8125 1.7125 5.8125 3.3625 5.8125 5.0625 C5.05324219 5.03929688 4.29398438 5.01609375 3.51171875 4.9921875 C2.02091797 4.96511719 2.02091797 4.96511719 0.5 4.9375 C-0.48613281 4.91429688 -1.47226563 4.89109375 -2.48828125 4.8671875 C-5.41156527 4.85567361 -5.41156527 4.85567361 -8.1875 7.0625 C-8.5175 5.0825 -8.8475 3.1025 -9.1875 1.0625 C-5.90230525 -0.03256492 -3.45086585 -0.03710608 0 0 Z " fill="#5D6442" transform="translate(93.1875,61.9375)"/>
<path d="M0 0 C0.33 1.32 0.66 2.64 1 4 C2.98 4 4.96 4 7 4 C1.50725702 6.94254088 -2.84597554 7.10256707 -9 7 C-8.34 6.67 -7.68 6.34 -7 6 C-7 5.01 -7 4.02 -7 3 C-8.32 2.67 -9.64 2.34 -11 2 C-9.5422647 1.664061 -8.08378894 1.33133376 -6.625 1 C-5.40683594 0.7215625 -5.40683594 0.7215625 -4.1640625 0.4375 C-2 0 -2 0 0 0 Z " fill="#E7EDE2" transform="translate(523,137)"/>
<path d="M0 0 C2 1 2 1 3.125 3.6875 C3.98889074 6.9579435 4.16013991 9.63706182 4 13 C1.69 13 -0.62 13 -3 13 C-2.343621 8.51474352 -1.29925791 4.33085971 0 0 Z " fill="#DFE5D4" transform="translate(552,205)"/>
<path d="M0 0 C2.875 -0.125 2.875 -0.125 6 0 C8 2 8 2 8 5 C11.465 4.505 11.465 4.505 15 4 C14.34 5.65 13.68 7.3 13 9 C8.71 7.35 4.42 5.7 0 4 C0 2.68 0 1.36 0 0 Z " fill="#F3F8EB" transform="translate(614,204)"/>
<path d="M0 0 C2.97 0 5.94 0 9 0 C9.33 1.65 9.66 3.3 10 5 C6.78548731 6.60725635 3.56387464 6.05748185 0 6 C0 4.02 0 2.04 0 0 Z " fill="#EBF0E6" transform="translate(582,216)"/>
<path d="M0 0 C3.375 -0.125 3.375 -0.125 7 0 C7.66 0.66 8.32 1.32 9 2 C8.46428571 5.53571429 8.46428571 5.53571429 7 7 C4.66702567 7.04092937 2.33294775 7.04241723 0 7 C0 4.69 0 2.38 0 0 Z " fill="#EBEFE6" transform="translate(582,204)"/>
<path d="M0 0 C0.144375 0.598125 0.28875 1.19625 0.4375 1.8125 C0.8872439 3.56150404 1.42892341 5.28677023 2 7 C2.99 7 3.98 7 5 7 C4.25 12.75 4.25 12.75 2 15 C1.67 14.34 1.34 13.68 1 13 C-0.65 13.66 -2.3 14.32 -4 15 C-3.52396226 12.87429688 -3.04407402 10.74945573 -2.5625 8.625 C-2.29566406 7.44164062 -2.02882813 6.25828125 -1.75390625 5.0390625 C-1 2 -1 2 0 0 Z " fill="#5C6542" transform="translate(547,199)"/>
<path d="M0 0 C0 0.99 0 1.98 0 3 C-0.82757812 2.75443359 -0.82757812 2.75443359 -1.671875 2.50390625 C-4.26614007 1.94239586 -6.59835411 1.90260992 -9.25 1.9375 C-10.58804688 1.95103516 -10.58804688 1.95103516 -11.953125 1.96484375 C-12.62859375 1.97644531 -13.3040625 1.98804687 -14 2 C-14.33 2.66 -14.66 3.32 -15 4 C-17.31 3.34 -19.62 2.68 -22 2 C-14.9188215 -2.72078567 -7.82714878 -2.60904959 0 0 Z " fill="#57603C" transform="translate(534,108)"/>
<path d="M0 0 C0.66 0 1.32 0 2 0 C2 2.64 2 5.28 2 8 C4.31 6.35 6.62 4.7 9 3 C9.66 3.33 10.32 3.66 11 4 C10.67 4.33 10.34 4.66 10 5 C12.64 5.33 15.28 5.66 18 6 C18 6.33 18 6.66 18 7 C17.39671875 7.03738281 16.7934375 7.07476562 16.171875 7.11328125 C10.00632228 7.56253341 10.00632228 7.56253341 5 11 C3.046875 10.2890625 3.046875 10.2890625 1 9 C0.390625 6.8359375 0.390625 6.8359375 0.25 4.375 C0.19328125 3.55773437 0.1365625 2.74046875 0.078125 1.8984375 C0.05234375 1.27195312 0.0265625 0.64546875 0 0 Z " fill="#5D6745" transform="translate(305,105)"/>
<path d="M0 0 C-1 2 -2 4 -3 6 C-4.65 6 -6.3 6 -8 6 C-8.33 4.68 -8.66 3.36 -9 2 C-10.65 2.66 -12.3 3.32 -14 4 C-10.36515075 -1.28705346 -5.79646176 -0.3982302 0 0 Z " fill="#59613C" transform="translate(622,198)"/>
<path d="M0 0 C4.95 0 9.9 0 15 0 C15 0.99 15 1.98 15 3 C10.05 3 5.1 3 0 3 C0 2.01 0 1.02 0 0 Z " fill="#525B37" transform="translate(91,110)"/>
<path d="M0 0 C0.99 0.99 1.98 1.98 3 3 C-0.46741134 5.95749791 -3.86873527 8.07848152 -8 10 C-8 9.01 -8 8.02 -8 7 C-8.66 6.34 -9.32 5.68 -10 5 C-9.36191406 4.72285156 -8.72382812 4.44570312 -8.06640625 4.16015625 C-7.24011719 3.79792969 -6.41382813 3.43570313 -5.5625 3.0625 C-4.73878906 2.70285156 -3.91507813 2.34320313 -3.06640625 1.97265625 C-1.05589883 1.16877677 -1.05589883 1.16877677 0 0 Z " fill="#525B37" transform="translate(540,136)"/>
<path d="M0 0 C0.66 0.33 1.32 0.66 2 1 C2.36666667 6.5 2.36666667 6.5 0.625 8.875 C-1 10 -1 10 -3 10 C-3 9.34 -3 8.68 -3 8 C-3.99 7.67 -4.98 7.34 -6 7 C-6.33 5.35 -6.66 3.7 -7 2 C-4 3 -4 3 -3 5 C-2.01 5.33 -1.02 5.66 0 6 C0 4.02 0 2.04 0 0 Z " fill="#56603F" transform="translate(596,202)"/>
<path d="M0 0 C0.33 0 0.66 0 1 0 C1.36445898 3.91793406 1.32506066 5.54288344 -1 8.8125 C-1.66 9.534375 -2.32 10.25625 -3 11 C-3 11.33 -3 11.66 -3 12 C-5.31 12 -7.62 12 -10 12 C-10 11.34 -10 10.68 -10 10 C-9.16855469 9.67128906 -9.16855469 9.67128906 -8.3203125 9.3359375 C-3.35136465 7.2212507 -3.35136465 7.2212507 -0.5 2.75 C-0.335 1.8425 -0.17 0.935 0 0 Z " fill="#515938" transform="translate(277,172)"/>
<path d="M0 0 C0.33 0.66 0.66 1.32 1 2 C1.99 2.33 2.98 2.66 4 3 C1.03 4.65 -1.94 6.3 -5 8 C-5 7.01 -5 6.02 -5 5 C-6.98 5 -8.96 5 -11 5 C-11 4.67 -11 4.34 -11 4 C-9.9275 3.896875 -8.855 3.79375 -7.75 3.6875 C-4.14179128 3.02599507 -2.63604977 2.42516579 0 0 Z " fill="#636B46" transform="translate(545,174)"/>
<path d="M0 0 C0.66 0.33 1.32 0.66 2 1 C0.40546864 4.18906272 -2.80517981 4.84442674 -6 6 C-9.40232686 6.89108561 -12.48837858 7.10033204 -16 7 C-12.68338508 5.29362566 -9.30276074 3.78214189 -5.875 2.3125 C-4.82054687 1.85488281 -3.76609375 1.39726563 -2.6796875 0.92578125 C-1.79539063 0.62027344 -0.91109375 0.31476563 0 0 Z " fill="#596142" transform="translate(211,112)"/>
<path d="M0 0 C0 0.33 0 0.66 0 1 C-1.98 1 -3.96 1 -6 1 C-6 1.66 -6 2.32 -6 3 C-6.99 3.66 -7.98 4.32 -9 5 C-9.72965366 7.56282742 -9.72965366 7.56282742 -10 10 C-10.66 9.34 -11.32 8.68 -12 8 C-11.79532882 5.33927465 -11.28758914 3.49059324 -9.9375 1.1875 C-6.75444301 -0.7634059 -3.67569327 -0.1807718 0 0 Z " fill="#D9DFCD" transform="translate(530,109)"/>
<path d="M0 0 C0 2 0 4 0 6 C-2.64 6 -5.28 6 -8 6 C-7.67 5.01 -7.34 4.02 -7 3 C-3.4375 1.3125 -3.4375 1.3125 0 0 Z " fill="#4F5834" transform="translate(601,178)"/>
<path d="M0 0 C4.455 0.99 4.455 0.99 9 2 C9 2.33 9 2.66 9 3 C7.02 3 5.04 3 3 3 C2.67 3.99 2.34 4.98 2 6 C2 5.01 2 4.02 2 3 C-0.31 3.33 -2.62 3.66 -5 4 C-5 3.34 -5 2.68 -5 2 C-4.01 1.67 -3.02 1.34 -2 1 C-1.34 1.33 -0.68 1.66 0 2 C0 1.34 0 0.68 0 0 Z " fill="#DAE1CF" transform="translate(611,214)"/>
<path d="M0 0 C2.97 0 5.94 0 9 0 C9 0.99 9 1.98 9 3 C6.03 3 3.06 3 0 3 C0 2.01 0 1.02 0 0 Z " fill="#565E40" transform="translate(53,110)"/>
<path d="M0 0 C0.80824219 0.19464844 1.61648437 0.38929687 2.44921875 0.58984375 C3.06410156 0.74582031 3.67898437 0.90179688 4.3125 1.0625 C2.3125 3.0625 2.3125 3.0625 -0.6875 3.125 C-1.6775 3.104375 -2.6675 3.08375 -3.6875 3.0625 C-4.6775 3.5575 -4.6775 3.5575 -5.6875 4.0625 C-5.6875 3.4025 -5.6875 2.7425 -5.6875 2.0625 C-7.3375 2.0625 -8.9875 2.0625 -10.6875 2.0625 C-6.60145347 -0.66153102 -4.65340705 -1.14649159 0 0 Z " fill="#5B6442" transform="translate(136.6875,107.9375)"/>
<path d="M0 0 C2.93447357 2.93447357 2.46158423 6.18259456 2.625 10.125 C2.66367187 10.87910156 2.70234375 11.63320312 2.7421875 12.41015625 C2.83651031 14.27303184 2.91934662 16.13648255 3 18 C2.67 18 2.34 18 2 18 C1.87882813 16.92878906 1.75765625 15.85757813 1.6328125 14.75390625 C1.46402399 13.35671248 1.29472687 11.95958009 1.125 10.5625 C1.04636719 9.85544922 0.96773437 9.14839844 0.88671875 8.41992188 C0.66072324 6.60326568 0.33699273 4.79937478 0 3 C-0.66 2.67 -1.32 2.34 -2 2 C-1.34 1.34 -0.68 0.68 0 0 Z " fill="#C6CCBA" transform="translate(542,139)"/>
<path d="M0 0 C2.64 0 5.28 0 8 0 C7.01 1.485 7.01 1.485 6 3 C6 3.99 6 4.98 6 6 C4.02 5.01 2.04 4.02 0 3 C0 2.01 0 1.02 0 0 Z " fill="#57603F" transform="translate(593,76)"/>
<path d="M0 0 C0 0.33 0 0.66 0 1 C-1.0725 1.2475 -2.145 1.495 -3.25 1.75 C-6.99649437 2.99883146 -8.52073882 4.02488658 -11 7 C-11.66 6.67 -12.32 6.34 -13 6 C-9.04608494 0.06912741 -7.07897132 -0.71989539 0 0 Z " fill="#E4E8D9" transform="translate(240,110)"/>
<path d="M0 0 C1.32 0.66 2.64 1.32 4 2 C2.35 3.65 0.7 5.3 -1 7 C-1.99 5.68 -2.98 4.36 -4 3 C-2.68 2.01 -1.36 1.02 0 0 Z " fill="#57613D" transform="translate(228,109)"/>
<path d="M0 0 C0 0.99 0 1.98 0 3 C-1.98 3.99 -1.98 3.99 -4 5 C-4 5.66 -4 6.32 -4 7 C-5.65 7 -7.3 7 -9 7 C-8.67 6.01 -8.34 5.02 -8 4 C-6.01751285 3.28293018 -4.01584651 2.61709587 -2 2 C-1.34 1.34 -0.68 0.68 0 0 Z " fill="#596043" transform="translate(451,177)"/>
<path d="M0 0 C0.66 0.33 1.32 0.66 2 1 C1.67 1.33 1.34 1.66 1 2 C3.64 2.33 6.28 2.66 9 3 C9 3.33 9 3.66 9 4 C8.06027344 4.09087891 8.06027344 4.09087891 7.1015625 4.18359375 C6.28429687 4.26738281 5.46703125 4.35117188 4.625 4.4375 C3.81289063 4.51871094 3.00078125 4.59992188 2.1640625 4.68359375 C-0.04272805 4.89090114 -0.04272805 4.89090114 -2 6 C-2 5.34 -2 4.68 -2 4 C-2.66 3.67 -3.32 3.34 -4 3 C-2.68 2.01 -1.36 1.02 0 0 Z " fill="#748061" transform="translate(314,108)"/>
<path d="M0 0 C0.99 0 1.98 0 3 0 C3 0.99 3 1.98 3 3 C6.465 2.505 6.465 2.505 10 2 C6.09971775 4.60018816 2.52565431 4.15085514 -2 4 C-1.34 3.67 -0.68 3.34 0 3 C0 2.01 0 1.02 0 0 Z " fill="#C6CBBE" transform="translate(516,140)"/>
<path d="M0 0 C0.66 0.33 1.32 0.66 2 1 C1.125 4.875 1.125 4.875 0 6 C-2.33297433 6.04092937 -4.66705225 6.04241723 -7 6 C-7 5.67 -7 5.34 -7 5 C-5.824375 4.87625 -5.824375 4.87625 -4.625 4.75 C-1.85250896 4.27193661 -1.85250896 4.27193661 -0.6875 1.9375 C-0.460625 1.298125 -0.23375 0.65875 0 0 Z " fill="#CCD4C0" transform="translate(589,205)"/>
<path d="M0 0 C1.32 0.33 2.64 0.66 4 1 C3.01 1.495 3.01 1.495 2 2 C1.67 2.99 1.34 3.98 1 5 C-1.97 4.67 -4.94 4.34 -8 4 C-8 3.67 -8 3.34 -8 3 C-5.36 2.67 -2.72 2.34 0 2 C0 1.34 0 0.68 0 0 Z " fill="#7C8764" transform="translate(590,212)"/>
<path d="M0 0 C-0.99 1.32 -1.98 2.64 -3 4 C-5.475 3.01 -5.475 3.01 -8 2 C-7 0 -7 0 -5.125 -0.6875 C-3 -1 -3 -1 0 0 Z " fill="#E1E8D5" transform="translate(629,209)"/>
<path d="M0 0 C0.33 0.99 0.66 1.98 1 3 C-3.625 6 -3.625 6 -7 6 C-6.67 5.01 -6.34 4.02 -6 3 C-3.5 1.875 -3.5 1.875 -1 1 C-0.67 0.67 -0.34 0.34 0 0 Z " fill="#525B38" transform="translate(334,178)"/>
<path d="M0 0 C2.14699969 3.44175522 2.09856795 5.7720292 1.625 9.75 C1.51414062 10.73484375 1.40328125 11.7196875 1.2890625 12.734375 C1.19367187 13.48203125 1.09828125 14.2296875 1 15 C0.67 15 0.34 15 0 15 C-0.19390729 12.68802845 -0.37996367 10.3753971 -0.5625 8.0625 C-0.71912109 6.13083984 -0.71912109 6.13083984 -0.87890625 4.16015625 C-0.91886719 3.11730469 -0.95882812 2.07445312 -1 1 C-0.67 0.67 -0.34 0.34 0 0 Z " fill="#57623C" transform="translate(521,152)"/>
<path d="M0 0 C0.66 0.33 1.32 0.66 2 1 C1.01 2.485 1.01 2.485 0 4 C-2.1640625 4.29296875 -2.1640625 4.29296875 -4.625 4.1875 C-5.44226563 4.16042969 -6.25953125 4.13335937 -7.1015625 4.10546875 C-8.04128906 4.05326172 -8.04128906 4.05326172 -9 4 C-6.04245816 2.5086438 -3.13948098 1.07403297 0 0 Z " fill="#5F6844" transform="translate(615,71)"/>
<path d="M0 0 C1.98 0 3.96 0 6 0 C6 0.99 6 1.98 6 3 C5.01 3.66 4.02 4.32 3 5 C2.01 4.67 1.02 4.34 0 4 C0.66 4 1.32 4 2 4 C2 3.34 2 2.68 2 2 C1.34 1.34 0.68 0.68 0 0 Z " fill="#4C552D" transform="translate(534,179)"/>
<path d="M0 0 C0.33 1.32 0.66 2.64 1 4 C-1.375 5.5625 -1.375 5.5625 -4 7 C-4.66 6.67 -5.32 6.34 -6 6 C-4.02 4.02 -2.04 2.04 0 0 Z " fill="#DBE1CD" transform="translate(175,171)"/>
<path d="M0 0 C0.33 0.99 0.66 1.98 1 3 C-0.25 5.1875 -0.25 5.1875 -2 7 C-2.99 7 -3.98 7 -5 7 C-3.70700306 4.11562221 -2.34058637 2.12780579 0 0 Z " fill="#E7EDDF" transform="translate(528,149)"/>
<path d="M0 0 C0.66 0.33 1.32 0.66 2 1 C-1.465 3.97 -1.465 3.97 -5 7 C-5.66 6.34 -6.32 5.68 -7 5 C-4.69 3.35 -2.38 1.7 0 0 Z " fill="#E3E7D8" transform="translate(536,143)"/>
<path d="M0 0 C0.66 1.32 1.32 2.64 2 4 C1.01 5.485 1.01 5.485 0 7 C-1.32 6.67 -2.64 6.34 -4 6 C-2.68 4.02 -1.36 2.04 0 0 Z " fill="#E5EADB" transform="translate(260,128)"/>
<path d="M0 0 C0.8971875 0.309375 0.8971875 0.309375 1.8125 0.625 C-3.8125 4.5 -3.8125 4.5 -7.1875 5.625 C-5.69046729 2.17030914 -4.27938051 -0.73360809 0 0 Z " fill="#E3E7D5" transform="translate(372.1875,113.375)"/>
<path d="M0 0 C-0.66 1.32 -1.32 2.64 -2 4 C-3.98 4 -5.96 4 -8 4 C-3.375 0 -3.375 0 0 0 Z " fill="#505835" transform="translate(632,63)"/>
<path d="M0 0 C0.33 0 0.66 0 1 0 C0.67 3.3 0.34 6.6 0 10 C-0.99 10.33 -1.98 10.66 -3 11 C-2.01 7.37 -1.02 3.74 0 0 Z " fill="#E3E8D8" transform="translate(183,154)"/>
<path d="M0 0 C4.29425875 1.07356469 4.74740471 1.5084773 7 5 C6.34 5.66 5.68 6.32 5 7 C3.35 4.69 1.7 2.38 0 0 Z " fill="#E2E8D3" transform="translate(353,115)"/>
</svg>
